<?xml version="1.0" standalone="no"?>
<svg version="1.0" xmlns="http://www.w3.org/2000/svg" width="1920" height="560" viewBox="0 0 1920 560">
    <defs>
        <style>
            .cls-bg {
                fill: hsl(5 65% 33%);
            }

            .cls-text {
                fill: hsl(21 0% 97%);
            }

            .cls-midline {
                fill: hsl(10 33% 48%);
            }
        </style>
    </defs>
    <g>
        <rect width="1920" height="560" class='cls-text' mask="url(#mask)" />
        <mask id="mask">
            <rect width="1920" height="560" fill='white' />
            <path fill='black' transform="translate(0,560) scale(0.1,-0.1)" d="M0 2800 l0 -2800 9600 0 9600 0 0 2800 0 2800 -9600 0 -9600 0 0
-2800z m7249 2182 c25 -26 73 -83 106 -126 33 -43 67 -85 76 -95 9 -9 24 -32
34 -51 10 -19 32 -55 49 -80 17 -25 39 -61 49 -80 9 -19 46 -80 81 -135 73
-113 214 -344 235 -383 16 -30 124 -198 145 -225 8 -11 24 -38 36 -60 12 -23
34 -51 48 -61 48 -37 52 -17 54 328 4 471 -2 806 -14 859 -11 45 -10 50 18 90
44 62 59 66 213 63 l136 -4 42 -47 c49 -54 52 -70 21 -128 l-23 -42 1 -985 c0
-735 4 -996 13 -1027 14 -49 7 -69 -42 -121 -28 -29 -36 -32 -92 -32 -75 0
-121 13 -153 42 -34 32 -128 157 -213 285 -39 60 -80 117 -89 128 -10 11 -31
43 -47 71 -15 28 -50 85 -77 125 -68 103 -88 135 -127 203 -33 57 -75 128
-114 195 -72 121 -92 156 -133 236 -65 127 -98 161 -118 118 -12 -27 -16 -226
-15 -709 1 -252 6 -463 11 -490 24 -115 24 -108 -10 -148 -18 -20 -41 -41 -52
-47 -27 -15 -218 -21 -250 -8 -39 16 -99 111 -98 157 0 20 4 465 10 987 6 618
6 980 0 1036 -18 159 21 209 163 209 l80 0 46 -48z m1923 21 c37 -39 176 -257
293 -458 29 -49 84 -137 122 -195 38 -58 82 -127 97 -155 35 -62 43 -74 170
-270 104 -161 160 -235 178 -235 5 0 16 16 24 35 12 28 14 123 14 554 0 453
-2 525 -16 569 -20 61 -11 91 42 143 l35 34 131 2 131 3 44 -45 c44 -43 45
-45 40 -97 -3 -29 -10 -78 -17 -108 -12 -59 -20 -1763 -9 -1941 7 -106 -1
-130 -51 -173 -27 -22 -41 -26 -94 -26 -76 0 -98 14 -158 103 -23 34 -63 89
-88 122 -105 136 -354 529 -575 910 -16 28 -38 64 -47 80 -10 17 -36 65 -58
109 -34 68 -81 126 -101 126 -11 0 -22 -748 -17 -1083 l5 -308 -31 -29 c-19
-19 -41 -30 -60 -31 -17 0 -65 -2 -106 -4 -95 -4 -128 10 -171 71 -26 39 -33
59 -32 94 0 25 6 488 12 1029 11 914 11 988 -5 1029 -19 50 -14 91 17 130 26
33 50 39 165 41 86 1 91 0 116 -26z m2889 4 c43 -37 72 -99 66 -143 -3 -22
-10 -82 -17 -134 -15 -117 -25 -144 -62 -175 l-29 -24 -399 -1 c-220 0 -406
-3 -414 -6 -23 -9 -25 -24 -32 -237 -7 -197 -6 -202 14 -221 20 -17 38 -18
259 -16 131 1 292 3 358 4 l120 1 20 -40 c16 -31 21 -64 23 -150 4 -139 -19
-243 -58 -262 -19 -9 -112 -13 -360 -13 -184 0 -340 -4 -346 -8 -28 -19 -34
-56 -34 -222 0 -178 8 -219 45 -234 9 -3 203 -6 432 -6 l415 0 33 -33 33 -33
7 -141 c4 -77 4 -156 0 -174 -10 -47 -31 -85 -51 -93 -21 -8 -1216 -8 -1247
-1 -13 4 -38 29 -57 58 l-35 52 4 120 c1 66 7 217 12 335 4 118 11 521 15 896
6 679 6 681 -15 729 -28 63 -27 87 6 127 53 63 20 60 483 55 355 -4 521 -2
760 11 14 1 37 -9 51 -21z m-8158 -22 c46 -45 53 -74 36 -139 -9 -37 -14 -152
-17 -412 -3 -346 -3 -361 16 -384 l20 -25 21 25 c12 14 35 48 51 75 17 28 53
82 81 120 28 39 66 93 85 120 18 28 48 70 65 95 18 25 77 112 133 194 184 272
197 291 219 314 44 47 66 52 236 52 l161 0 35 -47 c49 -67 46 -86 -23 -152
-66 -64 -152 -169 -227 -280 -48 -72 -71 -103 -155 -220 -87 -119 -214 -310
-236 -354 l-25 -48 87 -147 c48 -81 147 -237 220 -347 125 -189 313 -490 375
-600 39 -68 38 -110 -3 -152 l-32 -33 -167 0 c-145 0 -169 2 -187 18 -26 22
-128 174 -137 204 -4 13 -13 30 -20 38 -7 8 -24 35 -37 60 -14 25 -47 86 -75
135 -57 102 -157 290 -186 350 -41 85 -89 108 -124 60 -10 -14 -53 -72 -96
-128 l-77 -102 1 -280 c0 -162 -4 -291 -9 -306 -17 -42 -67 -59 -177 -59 -110
0 -139 11 -182 67 -27 35 -28 40 -23 122 3 47 4 328 4 624 -1 295 -2 549 -1
565 0 15 1 231 2 479 1 431 2 454 21 474 35 39 73 52 133 46 31 -3 72 -2 91 3
66 15 85 12 123 -25z m2718 21 c9 -6 28 -29 43 -50 23 -34 26 -49 26 -116 0
-110 -26 -237 -56 -277 l-25 -33 -421 0 c-378 0 -423 -2 -440 -17 -16 -15 -18
-35 -18 -224 0 -267 -13 -249 189 -249 80 1 233 5 339 10 106 5 199 7 206 4 7
-3 24 -19 36 -37 29 -38 39 -137 30 -295 -9 -155 24 -143 -406 -141 -193 1
-358 -3 -366 -7 -33 -19 -38 -52 -38 -230 0 -169 1 -179 22 -201 l21 -23 417
0 c464 0 435 4 491 -73 29 -40 29 -42 29 -175 0 -119 -2 -139 -21 -168 -11
-19 -30 -39 -41 -45 -14 -7 -219 -11 -637 -13 l-616 -1 -23 25 c-46 48 -53 83
-41 184 13 107 17 1937 5 2028 -8 58 -8 58 30 96 l39 39 605 1 c450 0 609 -3
621 -12z m6618 -1 c22 -8 41 -12 41 -9 0 2 18 -5 40 -16 21 -11 46 -20 55 -20
24 0 122 -48 200 -99 179 -115 314 -304 412 -574 25 -69 28 -81 43 -152 5 -22
13 -53 19 -68 13 -34 14 -323 1 -422 -8 -62 -22 -127 -60 -274 -18 -73 -98
-227 -160 -309 -107 -142 -262 -273 -385 -327 -22 -9 -62 -28 -90 -40 -105
-50 -138 -53 -522 -58 l-362 -4 -32 31 c-55 53 -59 74 -51 262 9 204 8 1843
-1 1896 -3 21 -11 47 -17 59 -16 29 -4 68 33 107 l31 32 382 0 c308 0 389 -3
423 -15z m1139 1 c21 -11 62 -83 194 -347 92 -184 184 -374 204 -424 37 -93
72 -142 96 -132 8 2 25 27 39 53 14 27 31 58 37 69 27 48 107 226 132 295 39
106 86 207 124 265 18 28 41 71 52 97 10 26 31 62 45 80 26 32 28 32 140 40
63 4 129 10 147 14 40 8 68 -9 107 -67 17 -24 33 -45 38 -47 15 -7 6 -33 -30
-89 -20 -32 -87 -157 -148 -278 -61 -121 -116 -229 -123 -240 -6 -11 -23 -47
-38 -80 -14 -33 -63 -136 -109 -230 -46 -93 -109 -224 -141 -290 l-57 -119 -8
-131 c-9 -141 -2 -557 10 -642 7 -44 4 -58 -13 -89 -36 -63 -59 -74 -177 -81
-126 -7 -153 3 -194 73 l-27 47 3 391 4 391 -53 120 c-30 66 -59 127 -66 135
-7 8 -19 31 -26 50 -7 19 -17 40 -21 45 -6 9 -177 340 -236 459 -13 26 -34 64
-47 85 -13 20 -49 86 -81 146 -32 61 -66 124 -75 141 -9 16 -26 44 -38 62 -13
17 -32 51 -43 76 -18 41 -18 49 -6 79 8 18 29 45 46 60 32 27 35 27 172 27
100 0 148 -4 167 -14z m-7072 -2841 c52 -36 55 -55 60 -493 3 -224 9 -515 13
-647 8 -266 6 -280 -52 -315 -49 -30 -90 -26 -121 11 -54 64 -57 81 -62 404
-5 278 -7 301 -25 320 -18 19 -19 19 -49 -10 -16 -16 -30 -32 -30 -35 0 -4
-34 -67 -77 -141 -80 -141 -178 -279 -197 -279 -6 0 -18 11 -26 24 -8 14 -40
62 -71 108 -87 129 -151 230 -182 288 l-28 52 -24 -22 -24 -23 -3 -327 c-3
-371 0 -353 -87 -392 -43 -20 -44 -20 -70 -1 -52 39 -68 84 -75 217 -12 208
14 893 42 1131 7 57 41 125 62 125 14 0 63 -62 110 -139 25 -40 74 -116 109
-169 79 -119 121 -190 182 -314 26 -53 53 -99 58 -103 26 -16 50 10 96 103 27
53 56 108 66 122 9 14 31 53 48 87 17 34 58 90 89 125 59 65 202 253 202 265
0 9 31 43 39 43 4 0 16 -7 27 -15z m6491 -1 c59 -11 222 -98 280 -149 168
-148 277 -391 285 -635 6 -167 -94 -388 -236 -524 -79 -76 -140 -114 -308
-191 -59 -27 -105 -27 -153 -2 -11 6 -54 25 -96 42 -98 40 -166 90 -227 169
-49 61 -132 191 -132 205 0 4 -9 24 -20 46 -11 22 -20 46 -20 55 0 9 -5 21
-11 27 -11 11 -25 90 -35 198 -6 63 15 202 40 258 7 18 22 52 32 77 49 115
211 303 297 343 153 71 229 99 254 92 6 -2 29 -7 50 -11z m-3699 -21 c37 -27
38 -64 6 -148 -35 -91 -101 -278 -118 -335 -8 -25 -24 -70 -36 -100 -12 -30
-26 -72 -31 -93 -5 -21 -13 -45 -18 -55 -5 -9 -22 -53 -37 -97 -15 -44 -43
-111 -62 -150 -34 -68 -58 -127 -109 -269 -32 -86 -71 -153 -104 -178 -24 -18
-29 -18 -61 -5 -32 13 -42 29 -98 143 -81 167 -190 463 -190 516 0 10 -6 29
-14 41 -7 12 -24 60 -36 107 -13 47 -38 132 -56 190 -18 58 -42 139 -54 180
-12 41 -31 94 -41 117 -33 75 -24 100 48 137 68 34 129 12 148 -54 4 -14 11
-29 15 -35 4 -5 17 -44 29 -85 13 -41 36 -112 52 -158 16 -46 29 -91 29 -100
0 -27 86 -295 110 -343 5 -9 13 -34 19 -56 13 -46 46 -93 66 -93 19 0 45 40
45 69 0 25 42 138 65 176 7 11 20 47 29 80 10 33 22 71 28 85 5 14 25 66 43
116 18 50 38 100 44 110 27 49 66 163 76 218 4 24 18 51 36 69 28 27 34 29 90
25 39 -3 69 -11 87 -25z m2827 5 c14 -13 30 -41 35 -63 11 -47 3 -146 -16
-192 l-13 -33 -269 0 c-331 0 -311 10 -304 -152 6 -155 -8 -147 274 -148 184
-1 229 -4 239 -16 17 -21 6 -211 -14 -231 -15 -16 -103 -21 -365 -22 -73 -1
-86 -4 -106 -24 -23 -23 -24 -29 -20 -132 2 -59 7 -111 10 -116 12 -20 93 -28
328 -33 224 -4 249 -7 262 -23 20 -27 27 -77 21 -146 -5 -53 -10 -66 -37 -90
l-31 -28 -369 3 c-369 3 -369 3 -392 26 l-23 23 -6 622 c-4 342 -10 639 -14
659 -6 34 -4 41 26 71 l34 34 245 2 c216 1 437 14 449 27 10 10 32 3 56 -18z
m2180 -19 c86 -33 119 -52 176 -101 38 -33 69 -66 69 -74 0 -31 -104 -174
-126 -174 -7 0 -30 11 -50 25 -20 14 -55 30 -78 36 -23 6 -61 18 -85 25 -64
20 -100 17 -156 -14 -88 -48 -112 -140 -54 -207 24 -26 49 -40 107 -59 43 -13
98 -27 124 -30 43 -6 104 -28 198 -69 56 -25 114 -87 151 -162 31 -66 33 -76
33 -175 0 -118 -19 -185 -74 -266 -66 -94 -233 -204 -313 -204 -15 0 -39 -7
-53 -16 -22 -15 -28 -15 -57 -1 -18 8 -68 27 -112 41 -44 15 -109 44 -145 66
-63 37 -180 134 -180 149 0 5 25 45 55 90 30 45 55 86 55 92 0 16 28 9 57 -15
40 -33 140 -88 198 -108 75 -26 180 -23 228 6 94 58 127 163 68 220 -15 15
-50 33 -77 41 -95 26 -309 106 -349 129 -52 31 -131 111 -155 157 -10 19 -26
64 -35 99 -15 58 -15 69 -1 126 9 35 16 73 16 85 0 36 60 136 110 183 44 41
179 118 240 137 56 17 110 9 215 -32z m-11384 17 c19 -8 48 -29 64 -46 l30
-31 2 -240 c1 -213 3 -243 19 -260 16 -17 32 -19 193 -19 175 0 237 8 253 32
4 7 8 124 8 259 0 242 0 246 23 266 33 31 82 53 117 53 23 0 42 -11 74 -44
l44 -43 -5 -339 c-3 -187 -8 -482 -11 -658 l-7 -318 -44 -39 c-62 -55 -118
-49 -168 20 -22 29 -23 37 -23 268 0 131 -4 243 -8 249 -17 26 -54 30 -239 24
-138 -3 -196 -9 -205 -18 -10 -10 -14 -74 -18 -248 l-5 -236 -37 -34 c-64 -58
-134 -40 -177 45 -18 35 -20 72 -22 662 -1 344 1 631 5 638 9 14 86 71 96 71
4 0 23 -6 41 -14z m1729 -8 c107 -29 216 -101 310 -205 199 -222 260 -569 144
-820 -85 -184 -212 -331 -339 -392 -103 -51 -201 -91 -219 -91 -9 0 -29 11
-44 25 -17 16 -39 25 -58 25 -31 0 -131 47 -197 92 -41 28 -122 116 -164 178
-44 66 -68 115 -105 221 -30 88 -32 103 -33 229 0 257 63 417 235 591 72 73
206 149 263 149 18 0 39 5 47 10 18 13 85 7 160 -12z m5071 0 c52 -39 62 -69
55 -172 -4 -50 -8 -339 -9 -643 l-2 -552 -34 -35 c-37 -38 -77 -57 -102 -47
-21 8 -61 57 -78 95 -14 33 -17 778 -5 1134 l7 193 29 24 c39 33 97 34 139 3z
m-2071 -24 c39 -39 50 -106 26 -168 -27 -71 -37 -74 -276 -86 -116 -6 -228
-10 -248 -9 -43 3 -78 -16 -86 -46 -3 -11 -6 -59 -6 -107 0 -76 3 -90 23 -113
l22 -27 208 2 207 1 25 -25 c23 -23 25 -32 25 -120 0 -125 3 -124 -195 -131
-193 -7 -256 -12 -277 -20 -23 -9 -36 -54 -44 -156 -6 -85 -6 -86 22 -108 27
-21 30 -22 271 -15 275 8 282 7 308 -59 32 -80 15 -167 -40 -203 -38 -25 -672
-34 -727 -11 -59 25 -79 76 -72 179 13 179 21 519 21 857 l0 354 24 19 c19 17
34 19 89 14 36 -3 106 -2 155 2 50 4 186 7 303 6 l213 0 29 -30z m3005 2 c22
-10 60 -27 84 -38 57 -25 148 -95 197 -152 76 -86 184 -329 184 -414 0 -26 5
-65 10 -87 7 -26 6 -57 -1 -90 -65 -311 -281 -567 -528 -625 -66 -15 -498 -8
-530 9 -37 20 -43 75 -29 273 15 207 18 963 4 1049 -8 51 -6 59 13 78 22 22
26 22 289 19 235 -3 272 -5 307 -22z" />
        </mask>
        <path class='cls-bg' transform="translate(0,560) scale(0.1,-0.1)" d="M0 2800 l0 -2800 9600 0 9600 0 0 2800 0 2800 -9600 0 -9600 0 0
-2800z m7249 2182 c25 -26 73 -83 106 -126 33 -43 67 -85 76 -95 9 -9 24 -32
34 -51 10 -19 32 -55 49 -80 17 -25 39 -61 49 -80 9 -19 46 -80 81 -135 73
-113 214 -344 235 -383 16 -30 124 -198 145 -225 8 -11 24 -38 36 -60 12 -23
34 -51 48 -61 48 -37 52 -17 54 328 4 471 -2 806 -14 859 -11 45 -10 50 18 90
44 62 59 66 213 63 l136 -4 42 -47 c49 -54 52 -70 21 -128 l-23 -42 1 -985 c0
-735 4 -996 13 -1027 14 -49 7 -69 -42 -121 -28 -29 -36 -32 -92 -32 -75 0
-121 13 -153 42 -34 32 -128 157 -213 285 -39 60 -80 117 -89 128 -10 11 -31
43 -47 71 -15 28 -50 85 -77 125 -68 103 -88 135 -127 203 -33 57 -75 128
-114 195 -72 121 -92 156 -133 236 -65 127 -98 161 -118 118 -12 -27 -16 -226
-15 -709 1 -252 6 -463 11 -490 24 -115 24 -108 -10 -148 -18 -20 -41 -41 -52
-47 -27 -15 -218 -21 -250 -8 -39 16 -99 111 -98 157 0 20 4 465 10 987 6 618
6 980 0 1036 -18 159 21 209 163 209 l80 0 46 -48z m1923 21 c37 -39 176 -257
293 -458 29 -49 84 -137 122 -195 38 -58 82 -127 97 -155 35 -62 43 -74 170
-270 104 -161 160 -235 178 -235 5 0 16 16 24 35 12 28 14 123 14 554 0 453
-2 525 -16 569 -20 61 -11 91 42 143 l35 34 131 2 131 3 44 -45 c44 -43 45
-45 40 -97 -3 -29 -10 -78 -17 -108 -12 -59 -20 -1763 -9 -1941 7 -106 -1
-130 -51 -173 -27 -22 -41 -26 -94 -26 -76 0 -98 14 -158 103 -23 34 -63 89
-88 122 -105 136 -354 529 -575 910 -16 28 -38 64 -47 80 -10 17 -36 65 -58
109 -34 68 -81 126 -101 126 -11 0 -22 -748 -17 -1083 l5 -308 -31 -29 c-19
-19 -41 -30 -60 -31 -17 0 -65 -2 -106 -4 -95 -4 -128 10 -171 71 -26 39 -33
59 -32 94 0 25 6 488 12 1029 11 914 11 988 -5 1029 -19 50 -14 91 17 130 26
33 50 39 165 41 86 1 91 0 116 -26z m2889 4 c43 -37 72 -99 66 -143 -3 -22
-10 -82 -17 -134 -15 -117 -25 -144 -62 -175 l-29 -24 -399 -1 c-220 0 -406
-3 -414 -6 -23 -9 -25 -24 -32 -237 -7 -197 -6 -202 14 -221 20 -17 38 -18
259 -16 131 1 292 3 358 4 l120 1 20 -40 c16 -31 21 -64 23 -150 4 -139 -19
-243 -58 -262 -19 -9 -112 -13 -360 -13 -184 0 -340 -4 -346 -8 -28 -19 -34
-56 -34 -222 0 -178 8 -219 45 -234 9 -3 203 -6 432 -6 l415 0 33 -33 33 -33
7 -141 c4 -77 4 -156 0 -174 -10 -47 -31 -85 -51 -93 -21 -8 -1216 -8 -1247
-1 -13 4 -38 29 -57 58 l-35 52 4 120 c1 66 7 217 12 335 4 118 11 521 15 896
6 679 6 681 -15 729 -28 63 -27 87 6 127 53 63 20 60 483 55 355 -4 521 -2
760 11 14 1 37 -9 51 -21z m-8158 -22 c46 -45 53 -74 36 -139 -9 -37 -14 -152
-17 -412 -3 -346 -3 -361 16 -384 l20 -25 21 25 c12 14 35 48 51 75 17 28 53
82 81 120 28 39 66 93 85 120 18 28 48 70 65 95 18 25 77 112 133 194 184 272
197 291 219 314 44 47 66 52 236 52 l161 0 35 -47 c49 -67 46 -86 -23 -152
-66 -64 -152 -169 -227 -280 -48 -72 -71 -103 -155 -220 -87 -119 -214 -310
-236 -354 l-25 -48 87 -147 c48 -81 147 -237 220 -347 125 -189 313 -490 375
-600 39 -68 38 -110 -3 -152 l-32 -33 -167 0 c-145 0 -169 2 -187 18 -26 22
-128 174 -137 204 -4 13 -13 30 -20 38 -7 8 -24 35 -37 60 -14 25 -47 86 -75
135 -57 102 -157 290 -186 350 -41 85 -89 108 -124 60 -10 -14 -53 -72 -96
-128 l-77 -102 1 -280 c0 -162 -4 -291 -9 -306 -17 -42 -67 -59 -177 -59 -110
0 -139 11 -182 67 -27 35 -28 40 -23 122 3 47 4 328 4 624 -1 295 -2 549 -1
565 0 15 1 231 2 479 1 431 2 454 21 474 35 39 73 52 133 46 31 -3 72 -2 91 3
66 15 85 12 123 -25z m2718 21 c9 -6 28 -29 43 -50 23 -34 26 -49 26 -116 0
-110 -26 -237 -56 -277 l-25 -33 -421 0 c-378 0 -423 -2 -440 -17 -16 -15 -18
-35 -18 -224 0 -267 -13 -249 189 -249 80 1 233 5 339 10 106 5 199 7 206 4 7
-3 24 -19 36 -37 29 -38 39 -137 30 -295 -9 -155 24 -143 -406 -141 -193 1
-358 -3 -366 -7 -33 -19 -38 -52 -38 -230 0 -169 1 -179 22 -201 l21 -23 417
0 c464 0 435 4 491 -73 29 -40 29 -42 29 -175 0 -119 -2 -139 -21 -168 -11
-19 -30 -39 -41 -45 -14 -7 -219 -11 -637 -13 l-616 -1 -23 25 c-46 48 -53 83
-41 184 13 107 17 1937 5 2028 -8 58 -8 58 30 96 l39 39 605 1 c450 0 609 -3
621 -12z m6618 -1 c22 -8 41 -12 41 -9 0 2 18 -5 40 -16 21 -11 46 -20 55 -20
24 0 122 -48 200 -99 179 -115 314 -304 412 -574 25 -69 28 -81 43 -152 5 -22
13 -53 19 -68 13 -34 14 -323 1 -422 -8 -62 -22 -127 -60 -274 -18 -73 -98
-227 -160 -309 -107 -142 -262 -273 -385 -327 -22 -9 -62 -28 -90 -40 -105
-50 -138 -53 -522 -58 l-362 -4 -32 31 c-55 53 -59 74 -51 262 9 204 8 1843
-1 1896 -3 21 -11 47 -17 59 -16 29 -4 68 33 107 l31 32 382 0 c308 0 389 -3
423 -15z m1139 1 c21 -11 62 -83 194 -347 92 -184 184 -374 204 -424 37 -93
72 -142 96 -132 8 2 25 27 39 53 14 27 31 58 37 69 27 48 107 226 132 295 39
106 86 207 124 265 18 28 41 71 52 97 10 26 31 62 45 80 26 32 28 32 140 40
63 4 129 10 147 14 40 8 68 -9 107 -67 17 -24 33 -45 38 -47 15 -7 6 -33 -30
-89 -20 -32 -87 -157 -148 -278 -61 -121 -116 -229 -123 -240 -6 -11 -23 -47
-38 -80 -14 -33 -63 -136 -109 -230 -46 -93 -109 -224 -141 -290 l-57 -119 -8
-131 c-9 -141 -2 -557 10 -642 7 -44 4 -58 -13 -89 -36 -63 -59 -74 -177 -81
-126 -7 -153 3 -194 73 l-27 47 3 391 4 391 -53 120 c-30 66 -59 127 -66 135
-7 8 -19 31 -26 50 -7 19 -17 40 -21 45 -6 9 -177 340 -236 459 -13 26 -34 64
-47 85 -13 20 -49 86 -81 146 -32 61 -66 124 -75 141 -9 16 -26 44 -38 62 -13
17 -32 51 -43 76 -18 41 -18 49 -6 79 8 18 29 45 46 60 32 27 35 27 172 27
100 0 148 -4 167 -14z m-7072 -2841 c52 -36 55 -55 60 -493 3 -224 9 -515 13
-647 8 -266 6 -280 -52 -315 -49 -30 -90 -26 -121 11 -54 64 -57 81 -62 404
-5 278 -7 301 -25 320 -18 19 -19 19 -49 -10 -16 -16 -30 -32 -30 -35 0 -4
-34 -67 -77 -141 -80 -141 -178 -279 -197 -279 -6 0 -18 11 -26 24 -8 14 -40
62 -71 108 -87 129 -151 230 -182 288 l-28 52 -24 -22 -24 -23 -3 -327 c-3
-371 0 -353 -87 -392 -43 -20 -44 -20 -70 -1 -52 39 -68 84 -75 217 -12 208
14 893 42 1131 7 57 41 125 62 125 14 0 63 -62 110 -139 25 -40 74 -116 109
-169 79 -119 121 -190 182 -314 26 -53 53 -99 58 -103 26 -16 50 10 96 103 27
53 56 108 66 122 9 14 31 53 48 87 17 34 58 90 89 125 59 65 202 253 202 265
0 9 31 43 39 43 4 0 16 -7 27 -15z m6491 -1 c59 -11 222 -98 280 -149 168
-148 277 -391 285 -635 6 -167 -94 -388 -236 -524 -79 -76 -140 -114 -308
-191 -59 -27 -105 -27 -153 -2 -11 6 -54 25 -96 42 -98 40 -166 90 -227 169
-49 61 -132 191 -132 205 0 4 -9 24 -20 46 -11 22 -20 46 -20 55 0 9 -5 21
-11 27 -11 11 -25 90 -35 198 -6 63 15 202 40 258 7 18 22 52 32 77 49 115
211 303 297 343 153 71 229 99 254 92 6 -2 29 -7 50 -11z m-3699 -21 c37 -27
38 -64 6 -148 -35 -91 -101 -278 -118 -335 -8 -25 -24 -70 -36 -100 -12 -30
-26 -72 -31 -93 -5 -21 -13 -45 -18 -55 -5 -9 -22 -53 -37 -97 -15 -44 -43
-111 -62 -150 -34 -68 -58 -127 -109 -269 -32 -86 -71 -153 -104 -178 -24 -18
-29 -18 -61 -5 -32 13 -42 29 -98 143 -81 167 -190 463 -190 516 0 10 -6 29
-14 41 -7 12 -24 60 -36 107 -13 47 -38 132 -56 190 -18 58 -42 139 -54 180
-12 41 -31 94 -41 117 -33 75 -24 100 48 137 68 34 129 12 148 -54 4 -14 11
-29 15 -35 4 -5 17 -44 29 -85 13 -41 36 -112 52 -158 16 -46 29 -91 29 -100
0 -27 86 -295 110 -343 5 -9 13 -34 19 -56 13 -46 46 -93 66 -93 19 0 45 40
45 69 0 25 42 138 65 176 7 11 20 47 29 80 10 33 22 71 28 85 5 14 25 66 43
116 18 50 38 100 44 110 27 49 66 163 76 218 4 24 18 51 36 69 28 27 34 29 90
25 39 -3 69 -11 87 -25z m2827 5 c14 -13 30 -41 35 -63 11 -47 3 -146 -16
-192 l-13 -33 -269 0 c-331 0 -311 10 -304 -152 6 -155 -8 -147 274 -148 184
-1 229 -4 239 -16 17 -21 6 -211 -14 -231 -15 -16 -103 -21 -365 -22 -73 -1
-86 -4 -106 -24 -23 -23 -24 -29 -20 -132 2 -59 7 -111 10 -116 12 -20 93 -28
328 -33 224 -4 249 -7 262 -23 20 -27 27 -77 21 -146 -5 -53 -10 -66 -37 -90
l-31 -28 -369 3 c-369 3 -369 3 -392 26 l-23 23 -6 622 c-4 342 -10 639 -14
659 -6 34 -4 41 26 71 l34 34 245 2 c216 1 437 14 449 27 10 10 32 3 56 -18z
m2180 -19 c86 -33 119 -52 176 -101 38 -33 69 -66 69 -74 0 -31 -104 -174
-126 -174 -7 0 -30 11 -50 25 -20 14 -55 30 -78 36 -23 6 -61 18 -85 25 -64
20 -100 17 -156 -14 -88 -48 -112 -140 -54 -207 24 -26 49 -40 107 -59 43 -13
98 -27 124 -30 43 -6 104 -28 198 -69 56 -25 114 -87 151 -162 31 -66 33 -76
33 -175 0 -118 -19 -185 -74 -266 -66 -94 -233 -204 -313 -204 -15 0 -39 -7
-53 -16 -22 -15 -28 -15 -57 -1 -18 8 -68 27 -112 41 -44 15 -109 44 -145 66
-63 37 -180 134 -180 149 0 5 25 45 55 90 30 45 55 86 55 92 0 16 28 9 57 -15
40 -33 140 -88 198 -108 75 -26 180 -23 228 6 94 58 127 163 68 220 -15 15
-50 33 -77 41 -95 26 -309 106 -349 129 -52 31 -131 111 -155 157 -10 19 -26
64 -35 99 -15 58 -15 69 -1 126 9 35 16 73 16 85 0 36 60 136 110 183 44 41
179 118 240 137 56 17 110 9 215 -32z m-11384 17 c19 -8 48 -29 64 -46 l30
-31 2 -240 c1 -213 3 -243 19 -260 16 -17 32 -19 193 -19 175 0 237 8 253 32
4 7 8 124 8 259 0 242 0 246 23 266 33 31 82 53 117 53 23 0 42 -11 74 -44
l44 -43 -5 -339 c-3 -187 -8 -482 -11 -658 l-7 -318 -44 -39 c-62 -55 -118
-49 -168 20 -22 29 -23 37 -23 268 0 131 -4 243 -8 249 -17 26 -54 30 -239 24
-138 -3 -196 -9 -205 -18 -10 -10 -14 -74 -18 -248 l-5 -236 -37 -34 c-64 -58
-134 -40 -177 45 -18 35 -20 72 -22 662 -1 344 1 631 5 638 9 14 86 71 96 71
4 0 23 -6 41 -14z m1729 -8 c107 -29 216 -101 310 -205 199 -222 260 -569 144
-820 -85 -184 -212 -331 -339 -392 -103 -51 -201 -91 -219 -91 -9 0 -29 11
-44 25 -17 16 -39 25 -58 25 -31 0 -131 47 -197 92 -41 28 -122 116 -164 178
-44 66 -68 115 -105 221 -30 88 -32 103 -33 229 0 257 63 417 235 591 72 73
206 149 263 149 18 0 39 5 47 10 18 13 85 7 160 -12z m5071 0 c52 -39 62 -69
55 -172 -4 -50 -8 -339 -9 -643 l-2 -552 -34 -35 c-37 -38 -77 -57 -102 -47
-21 8 -61 57 -78 95 -14 33 -17 778 -5 1134 l7 193 29 24 c39 33 97 34 139 3z
m-2071 -24 c39 -39 50 -106 26 -168 -27 -71 -37 -74 -276 -86 -116 -6 -228
-10 -248 -9 -43 3 -78 -16 -86 -46 -3 -11 -6 -59 -6 -107 0 -76 3 -90 23 -113
l22 -27 208 2 207 1 25 -25 c23 -23 25 -32 25 -120 0 -125 3 -124 -195 -131
-193 -7 -256 -12 -277 -20 -23 -9 -36 -54 -44 -156 -6 -85 -6 -86 22 -108 27
-21 30 -22 271 -15 275 8 282 7 308 -59 32 -80 15 -167 -40 -203 -38 -25 -672
-34 -727 -11 -59 25 -79 76 -72 179 13 179 21 519 21 857 l0 354 24 19 c19 17
34 19 89 14 36 -3 106 -2 155 2 50 4 186 7 303 6 l213 0 29 -30z m3005 2 c22
-10 60 -27 84 -38 57 -25 148 -95 197 -152 76 -86 184 -329 184 -414 0 -26 5
-65 10 -87 7 -26 6 -57 -1 -90 -65 -311 -281 -567 -528 -625 -66 -15 -498 -8
-530 9 -37 20 -43 75 -29 273 15 207 18 963 4 1049 -8 51 -6 59 13 78 22 22
26 22 289 19 235 -3 272 -5 307 -22z" />
    </g>

    <g transform="translate(0,560) scale(0.1,-0.1)">
        <path class='cls-bg' d="M12812 4507 l-22 -23 0 -652 c0 -669 1 -695 39 -707 37 -11 327 -8
371 4 106 30 249 146 330 269 32 49 87 190 112 287 14 55 2 294 -17 339 -8 19
-15 46 -15 60 0 60 -125 269 -193 320 -55 42 -147 87 -219 107 -52 15 -102 19
-216 19 -142 0 -149 -1 -170 -23z" />
        <path class='cls-bg' d="M13659 1856 c-60 -16 -130 -58 -163 -97 -15 -17 -38 -56 -52 -87 -14
-32 -32 -73 -41 -92 -27 -60 -29 -203 -4 -299 37 -143 91 -220 185 -266 153
-75 343 -24 438 116 67 98 83 157 82 297 -1 132 -6 151 -72 265 -45 77 -149
152 -225 162 -29 3 -63 8 -77 10 -14 2 -46 -2 -71 -9z" />
        <path class='cls-bg' d="M5250 1851 c-89 -27 -153 -93 -216 -220 l-47 -96 1 -117 c1 -113 2
-122 39 -210 68 -165 163 -233 317 -229 130 3 214 48 287 154 65 94 84 159 84
287 0 87 -4 116 -25 170 -40 107 -137 222 -217 256 -35 15 -180 18 -223 5z" />
        <path class='cls-bg' d="M11123 1851 c-12 -6 -26 -19 -32 -29 -15 -27 -4 -791 11 -809 7 -9
43 -13 127 -13 135 1 228 22 293 66 70 49 137 171 164 302 17 79 17 85 -1 160
-10 42 -27 91 -37 108 -56 97 -144 170 -238 197 -67 19 -257 31 -287 18z" />
        <path class="cls-midline" d="M15676 2443 c-4 -5 -11 -8 -14 -9 -4 0 -15 -4 -25 -8 -9 -5 -23 -4
-30 2 -13 10 -52 10 -63 -1 -4 -3 -14 -2 -23 3 -22 11 -142 9 -158 -3 -9 -6
-18 -6 -26 2 -8 6 -17 8 -20 4 -12 -11 -66 -13 -72 -3 -4 6 -13 7 -23 1 -9 -5
-20 -9 -24 -10 -5 -1 -11 -1 -15 -2 -21 -3 -59 4 -67 12 -15 14 -38 11 -51 -7
-11 -15 -14 -15 -38 1 -19 12 -31 14 -40 7 -12 -10 -79 -9 -108 3 -10 3 -19 2
-23 -3 -6 -10 -241 -7 -268 3 -9 4 -28 -1 -43 -11 -22 -14 -30 -15 -50 -4 -13
7 -37 10 -54 7 -17 -4 -33 -2 -36 3 -7 12 -53 6 -67 -8 -9 -9 -16 -8 -30 5
-17 15 -21 15 -55 -1 -31 -15 -39 -15 -48 -4 -10 14 -42 13 -61 -3 -6 -5 -15
-4 -23 4 -12 12 -119 19 -125 8 -2 -3 -109 -5 -238 -4 -151 1 -241 -2 -255 -9
-16 -8 -26 -8 -36 0 -9 8 -24 8 -51 1 -23 -6 -42 -7 -49 -1 -18 14 -198 9
-224 -6 -19 -10 -28 -10 -53 3 -22 12 -35 13 -49 5 -13 -7 -22 -7 -26 0 -10
16 -56 12 -77 -6 -16 -16 -18 -16 -24 0 -8 20 -33 21 -63 0 -20 -15 -24 -15
-38 -1 -12 11 -23 13 -49 5 -19 -5 -40 -6 -47 -1 -19 12 -98 14 -129 4 -19 -7
-38 -6 -58 1 -23 7 -34 7 -45 -2 -11 -9 -19 -9 -28 -2 -14 12 -42 0 -42 -18 0
-5 -4 -9 -10 -7 -5 1 -9 5 -8 9 1 3 -10 5 -25 3 -15 -2 -36 4 -46 13 -11 10
-16 12 -13 5 9 -15 -9 -27 -18 -13 -5 8 -11 7 -21 -1 -10 -8 -18 -8 -26 -1 -7
5 -46 9 -86 7 -40 -1 -75 2 -78 7 -3 5 -12 4 -19 -2 -8 -7 -19 -9 -25 -5 -6 4
-17 1 -25 -5 -8 -6 -20 -8 -26 -4 -18 11 -128 13 -135 3 -3 -5 -11 -6 -17 -2
-19 12 -410 12 -424 1 -9 -7 -17 -7 -27 1 -11 9 -25 9 -56 1 -29 -8 -45 -8
-54 -1 -20 17 -198 11 -219 -7 -15 -14 -21 -13 -52 4 -29 15 -39 16 -55 7 -12
-8 -21 -9 -25 -3 -10 16 -57 12 -77 -6 -16 -16 -18 -16 -24 0 -8 20 -47 21
-64 1 -11 -14 -15 -14 -30 0 -13 11 -24 13 -50 5 -18 -5 -38 -6 -44 -1 -16 12
-114 13 -121 1 -4 -7 -12 -7 -25 0 -12 6 -21 7 -25 0 -3 -5 -15 -6 -28 -1 -12
5 -33 5 -45 0 -13 -5 -28 -7 -32 -4 -5 3 -11 1 -15 -5 -4 -7 -13 -6 -27 1 -27
14 -109 19 -125 7 -7 -6 -25 -5 -46 0 -24 7 -39 6 -46 -1 -7 -7 -15 -6 -25 2
-12 10 -19 10 -37 -3 -18 -12 -26 -13 -43 -3 -12 6 -25 10 -31 8 -25 -9 -74
-10 -79 -3 -3 5 -27 7 -53 5 -89 -7 -109 -7 -121 1 -7 4 -24 -1 -40 -13 -25
-18 -31 -18 -49 -6 -21 15 -142 18 -165 4 -7 -5 -19 -2 -29 7 -15 14 -20 14
-49 -1 -21 -11 -35 -13 -43 -7 -7 6 -29 8 -51 6 -21 -3 -43 -1 -50 3 -6 4 -31
7 -56 6 -25 -2 -75 -3 -112 -3 -37 0 -70 -5 -73 -10 -4 -6 -11 -7 -17 -3 -20
12 -321 13 -345 1 -17 -8 -26 -8 -37 1 -8 7 -21 9 -28 5 -19 -12 -61 -14 -73
-4 -18 15 -187 9 -214 -8 -22 -13 -27 -13 -52 2 -22 13 -33 14 -48 6 -13 -7
-22 -7 -26 0 -11 18 -72 12 -80 -7 -6 -17 -7 -17 -20 0 -15 21 -54 20 -72 -3
-10 -13 -14 -13 -28 1 -14 14 -24 15 -52 7 -21 -6 -39 -6 -46 0 -17 13 -99 15
-130 3 -18 -7 -36 -7 -57 0 -23 8 -34 8 -46 -2 -11 -9 -18 -9 -26 -1 -8 8 -17
8 -32 0 -25 -13 -84 -12 -101 2 -15 13 -41 4 -49 -16 -5 -12 -11 -11 -35 7
-22 16 -34 19 -43 11 -13 -10 -99 -9 -117 2 -5 4 -12 2 -16 -3 -3 -6 -12 -8
-20 -4 -9 3 -21 0 -29 -6 -7 -6 -16 -7 -20 -3 -11 10 -119 11 -133 0 -7 -5
-14 -5 -17 1 -6 9 -184 9 -216 0 -8 -2 -14 1 -13 8 2 9 -4 10 -20 5 -26 -9
-115 -8 -124 2 -12 12 -41 6 -47 -10 -5 -13 -9 -14 -20 -5 -14 12 -80 10 -92
-2 -4 -3 -16 -1 -27 5 -11 5 -38 10 -61 9 -23 -1 -63 -2 -91 -2 -31 0 -57 -6
-67 -16 -16 -14 -20 -14 -43 1 -14 9 -42 16 -63 16 -20 0 -48 0 -61 0 -13 0
-29 -4 -35 -9 -7 -6 -18 -4 -30 5 -14 10 -23 11 -33 3 -7 -6 -13 -8 -13 -5 0
4 -9 2 -21 -4 -13 -7 -25 -8 -32 -2 -13 10 -46 10 -64 -1 -6 -4 -22 2 -36 13
-14 11 -28 16 -31 11 -4 -5 -19 -10 -34 -11 -52 -1 -77 -5 -89 -13 -6 -4 -14
-4 -17 1 -7 11 -64 14 -70 3 -3 -5 -25 -5 -51 1 -30 6 -55 6 -75 -1 -16 -5
-32 -7 -34 -3 -8 13 -170 13 -193 1 -17 -9 -26 -9 -37 0 -8 7 -21 9 -28 5 -19
-12 -61 -14 -73 -4 -18 15 -199 7 -219 -9 -15 -13 -22 -13 -49 1 -37 18 -142
23 -152 8 -5 -8 -11 -8 -20 0 -18 15 -57 9 -72 -10 -10 -13 -14 -13 -31 3 -15
14 -25 16 -46 7 -16 -6 -34 -6 -44 -2 -26 13 -109 14 -117 2 -5 -8 -11 -8 -21
1 -9 8 -18 8 -26 1 -7 -5 -22 -6 -33 -2 -11 4 -31 3 -43 -1 -13 -5 -28 -7 -32
-4 -17 11 -155 13 -167 4 -8 -7 -24 -7 -47 0 -23 6 -38 6 -42 0 -4 -6 -11 -6
-19 1 -8 7 -20 8 -27 4 -19 -12 -66 -15 -73 -4 -4 6 -13 7 -23 2 -9 -5 -37 -7
-62 -5 -74 7 -136 3 -159 -11 -10 -7 -15 -1 -12 17 1 4 -8 2 -19 -5 -14 -9
-22 -10 -31 -1 -8 8 -17 8 -35 -1 -24 -13 -109 -14 -121 -3 -3 4 -12 2 -18 -3
-8 -7 -21 -6 -41 4 -17 9 -32 12 -39 6 -11 -9 -98 -5 -115 5 -5 3 -12 0 -15
-6 -4 -5 -14 -8 -22 -5 -9 4 -22 1 -29 -5 -7 -6 -19 -7 -26 -3 -7 4 -26 9 -43
9 -16 1 -43 5 -58 10 -17 4 -33 3 -39 -3 -7 -7 -17 -7 -34 0 -35 16 -54 5 -45
-29 7 -27 9 -28 86 -30 44 -1 85 3 91 8 7 6 15 6 18 1 8 -13 87 -14 102 -1 7
6 19 7 26 3 18 -12 279 -14 299 -3 11 5 20 5 24 0 3 -5 22 -10 43 -10 20 0 54
-1 76 -1 21 0 44 4 51 10 10 8 15 8 20 0 5 -8 10 -8 20 0 7 6 16 7 19 2 6 -10
616 -10 633 1 6 4 14 3 18 -2 8 -15 64 -8 70 8 4 11 8 11 21 0 12 -10 65 -14
216 -14 110 0 202 3 205 8 2 4 12 2 21 -5 10 -8 13 -9 9 -1 -12 19 10 25 35
10 27 -16 70 -16 91 1 8 7 17 9 21 5 9 -10 30 -13 124 -17 45 -2 84 0 87 4 2
4 24 4 47 -1 24 -4 47 -4 52 1 4 4 22 4 39 -1 24 -7 37 -4 63 12 21 12 35 16
39 9 3 -5 3 -10 -2 -11 -4 -1 3 -4 17 -8 13 -4 46 -4 73 -1 26 4 50 3 53 -2 3
-5 10 -5 16 -2 17 11 72 11 85 1 8 -5 24 -3 44 7 22 11 36 13 44 6 10 -8 187
-15 280 -10 17 1 38 2 48 1 9 -1 25 -1 35 -2 35 -2 91 4 90 10 -2 19 4 20 24
7 26 -19 79 -21 95 -5 14 14 36 2 26 -14 -5 -8 -2 -8 9 0 8 7 17 10 21 7 3 -3
45 -5 94 -5 48 1 126 2 173 2 53 0 96 6 114 15 25 12 32 12 45 0 13 -11 54
-13 191 -12 96 0 181 5 188 9 6 5 18 5 25 0 18 -12 277 -14 298 -3 12 7 20 7
24 0 4 -6 25 -10 48 -10 23 0 59 0 81 0 21 0 44 4 51 10 10 8 15 8 20 0 9 -15
58 -8 72 10 10 13 12 13 18 -1 5 -13 33 -15 210 -14 112 0 207 4 211 8 4 4 14
1 22 -6 11 -8 14 -8 9 0 -12 19 10 25 35 10 27 -16 70 -16 91 1 8 7 17 9 21 5
13 -13 204 -25 211 -13 2 4 24 4 47 0 25 -5 48 -4 54 1 7 6 21 6 38 -1 27 -10
68 0 81 20 3 5 11 8 16 4 5 -3 7 -10 4 -15 -5 -8 32 -14 58 -10 40 6 89 6 93
-1 3 -5 10 -5 17 -1 14 8 57 8 79 -2 10 -4 31 0 49 9 21 10 36 13 43 6 10 -7
130 -12 266 -11 14 1 62 1 107 2 45 0 82 4 82 7 -3 19 2 23 15 13 28 -23 73
-30 95 -14 12 8 27 11 33 7 19 -12 46 -15 133 -13 44 1 181 2 305 3 124 1 230
5 237 9 6 4 14 3 18 -3 8 -13 60 -7 79 9 13 11 17 11 21 0 4 -11 46 -14 209
-14 113 0 208 3 212 7 4 4 13 3 21 -4 8 -6 13 -7 12 -2 -4 21 2 26 16 14 21
-18 88 -18 101 -1 13 16 38 5 27 -12 -5 -8 -2 -8 9 0 8 7 17 10 20 7 9 -8 165
-12 178 -4 6 4 29 4 51 0 22 -4 42 -4 44 1 3 4 28 5 55 2 40 -5 54 -2 70 12
18 16 24 14 21 -7 -1 -10 382 -6 396 4 7 5 14 5 17 0 8 -13 504 -13 512 0 4 5
11 5 18 -1 13 -11 54 -9 74 3 7 4 18 4 25 -1 16 -11 417 -11 424 -1 2 5 11 3
19 -3 9 -7 14 -8 13 -3 -4 21 2 26 16 14 21 -18 88 -18 101 -1 13 16 38 5 27
-12 -5 -8 -2 -8 9 0 8 7 17 10 20 8 9 -9 178 -13 183 -5 2 4 24 4 47 -1 24 -4
47 -4 51 0 5 5 28 6 53 3 34 -3 49 0 64 13 18 16 25 14 21 -8 -1 -4 54 -6 121
-5 68 2 129 -1 136 -6 7 -4 19 -3 26 3 7 6 16 8 19 4 4 -3 13 0 21 6 8 7 17 8
20 3 3 -5 107 -9 231 -10 124 0 223 3 220 8 -11 17 15 20 39 5 23 -16 119 -16
144 -1 6 3 13 2 16 -2 8 -13 87 -14 102 -1 7 6 19 7 26 2 18 -11 279 -12 301
-1 9 5 23 5 30 1 18 -11 160 -12 175 0 8 6 17 6 27 -3 11 -9 21 -9 46 4 21 10
36 13 43 7 9 -8 181 -15 271 -12 11 0 57 0 103 0 51 0 81 4 78 10 -12 18 13
22 38 6 14 -9 42 -15 67 -15 24 1 67 1 96 0 72 -3 96 6 83 31 -6 10 -7 19 -3
19 4 0 2 5 -5 12 -8 8 -15 8 -26 -1 -8 -7 -25 -9 -39 -6 -14 4 -28 2 -32 -4
-3 -6 -11 -9 -16 -5 -5 3 -6 10 -3 16 4 6 -1 8 -16 3 -34 -11 -100 -12 -106
-3 -3 5 -21 0 -40 -11 -33 -20 -37 -20 -60 -5 -15 11 -35 14 -54 11 -16 -4
-31 -3 -34 2 -6 10 -64 2 -72 -10 -3 -5 -15 -2 -28 6 -12 8 -26 12 -30 8z
m-5712 -64 c-3 -5 -10 -7 -15 -3 -5 3 -7 10 -3 15 3 5 10 7 15 3 5 -3 7 -10 3
-15z m-3460 -10 c-3 -5 -10 -7 -15 -3 -5 3 -7 10 -3 15 3 5 10 7 15 3 5 -3 7
-10 3 -15z" />
    </g>
</svg>